<svg xmlns="http://www.w3.org/2000/svg" width="20" height="39" viewBox="0 0 20 39">
  <metadata><?xpacket begin="﻿" id="W5M0MpCehiHzreSzNTczkc9d"?>
<x:xmpmeta xmlns:x="adobe:ns:meta/" x:xmptk="Adobe XMP Core 5.6-c142 79.160924, 2017/07/13-01:06:39        ">
   <rdf:RDF xmlns:rdf="http://www.w3.org/1999/02/22-rdf-syntax-ns#">
      <rdf:Description rdf:about=""/>
   </rdf:RDF>
</x:xmpmeta>
                                                                                                    
                                                                                                    
                                                                                                    
                                                                                                    
                                                                                                    
                                                                                                    
                                                                                                    
                                                                                                    
                                                                                                    
                                                                                                    
                                                                                                    
                                                                                                    
                                                                                                    
                                                                                                    
                                                                                                    
                                                                                                    
                                                                                                    
                                                                                                    
                                                                                                    
                                                                                                    
                           
<?xpacket end="w"?></metadata>
<defs>
    <style>
      .cls-1 {
        fill: #4d7ce0;
        fill-rule: evenodd;
      }
    </style>
  </defs>
  <path id="小车" class="cls-1" d="M18.227,24.134a0.772,0.772,0,0,1,.773.772v2.51a0.772,0.772,0,0,1-.773.772H18.034v6.95A3.863,3.863,0,0,1,14.171,39H6.83a3.863,3.863,0,0,1-3.864-3.861v-6.95H2.773A0.772,0.772,0,0,1,2,27.416v-2.51a0.772,0.772,0,0,1,.773-0.772H2.926L2.862,20.079H2.773A0.773,0.773,0,0,1,2,19.307V16.8a0.772,0.772,0,0,1,.773-0.772H2.8L2.65,6.636A6.375,6.375,0,0,1,8.863,0h3.255a6.375,6.375,0,0,1,6.214,6.636l-0.148,9.389h0.044A0.772,0.772,0,0,1,19,16.8v2.51a0.773,0.773,0,0,1-.773.772H18.12l-0.064,4.055h0.172ZM10.4,34.559a10.735,10.735,0,0,0,5.315-1.307l-0.6-4.87a11,11,0,0,1-4.887,1.078,11.175,11.175,0,0,1-4.563-.926l-0.579,4.72A10.737,10.737,0,0,0,10.4,34.559ZM3.932,30.891l1.352-1.738V24.327l-1.352-.772v7.337Zm0-7.916,1.352,0.772V17.955L3.932,14.48v8.5ZM10.4,9.653a12.239,12.239,0,0,0-6.045,1.483L5.017,16.5a12.74,12.74,0,0,1,5.193-1.052,12.538,12.538,0,0,1,5.562,1.224l0.68-5.531A12.236,12.236,0,0,0,10.4,9.653Zm6.665,4.634-1.352,3.668v5.792l1.352-.772V14.287Zm0,9.267-1.352.772v4.827l1.352,1.738V23.555Z"/>
</svg>
